<svg xmlns="http://www.w3.org/2000/svg" xmlns:xlink="http://www.w3.org/1999/xlink" viewBox="0 0 266 230" preserveAspectRatio="xMidYMid" style="display: block; shape-rendering: auto; background: rgb(255, 255, 255);" width="266" height="230"><style type="text/css">
  .ld-text text {
    text-anchor: middle;
    dominant-baseline: middle;
    font-size: 40px;
    opacity: 0;
    user-select: none;
    pointer-events: none;
  }
</style>
<g style="transform-origin:133px 115px;transform:scale(1)" class="ld-text">
<g transform="translate(133,115)">
  <g transform="scale(0.5000) translate(0,0)"><g class="path" style="opacity: 1; transform-origin: -217.61px 11.76px; transform: matrix3d(1, 0, 0, 0, 0, 1, 0, 0, 0, 0, 1, 0, 0, 0, 0, 1); animation: 0.613497s linear -0.371166s infinite normal forwards running animate-wb0ok0kkdwa; transform-box: view-box;"><path d="M46.76 38.86L46.76 46.01L6.37 46.01L6.37-10.24L21.88-10.24L21.88 38.86L46.76 38.86" style="fill: rgb(74, 101, 113);" transform="translate(-244.180,-23.005)"></path></g><g class="path" style="opacity: 1; transform-origin: -172.46px 14.48px; transform: matrix3d(1, 0, 0, 0, 0, 1, 0, 0, 0, 0, 1, 0, 0, 0, 0, 1); animation: 0.613497s linear -0.337423s infinite normal forwards running animate-wb0ok0kkdwa; transform-box: view-box;"><path d="M62.19 24.60L62.19 24.60Q64.61 25.15 67.03 25.46Q69.45 25.78 71.91 25.78L71.91 25.78Q74.49 25.78 76.70 25.29Q78.91 24.80 80.53 23.65Q82.15 22.49 83.09 20.58Q84.02 18.67 84.02 15.81L84.02 15.81Q84.02 13.51 83.40 11.60Q82.77 9.68 81.54 8.31Q80.31 6.95 78.52 6.19Q76.72 5.42 74.34 5.42L74.34 5.42Q72.11 5.42 70.33 6.24Q68.55 7.06 67.21 8.45Q65.86 9.84 64.90 11.67Q63.95 13.51 63.32 15.50Q62.70 17.49 62.42 19.53Q62.15 21.56 62.15 23.35L62.15 23.35Q62.15 23.67 62.15 23.98Q62.15 24.29 62.19 24.60 zM94.73 15.70L94.73 15.70Q94.73 18.47 93.83 20.64Q92.93 22.81 91.39 24.45Q89.84 26.09 87.81 27.22Q85.78 28.35 83.48 29.08Q81.17 29.80 78.73 30.11Q76.29 30.42 73.98 30.42L73.98 30.42Q71.05 30.42 68.20 30.01Q65.35 29.60 62.58 28.71L62.58 28.71Q63.01 31.28 63.95 33.61Q64.88 35.93 66.45 37.67Q68.01 39.41 70.29 40.42Q72.58 41.44 75.70 41.44L75.70 41.44Q77.77 41.44 79.65 40.81Q81.52 40.19 83.09 39.06Q84.65 37.92 85.84 36.36Q87.03 34.80 87.77 32.88L87.77 32.88L93.48 34.99Q92.19 38.08 89.94 40.33Q87.70 42.57 84.86 44.04Q82.03 45.50 78.85 46.21Q75.66 46.91 72.54 46.91L72.54 46.91Q67.38 46.91 63.01 45.17Q58.63 43.43 55.47 40.31Q52.30 37.18 50.51 32.85Q48.71 28.51 48.71 23.35L48.71 23.35Q48.71 18.20 50.51 13.86Q52.30 9.53 55.47 6.40Q58.63 3.28 63.01 1.54Q67.38-0.20 72.54-0.20L72.54-0.20Q75.04-0.20 77.66 0.15Q80.27 0.50 82.73 1.26Q85.20 2.03 87.38 3.24Q89.57 4.45 91.19 6.22Q92.81 8 93.77 10.35Q94.73 12.69 94.73 15.70" style="fill: rgb(74, 101, 113);" transform="translate(-244.180,-23.005)"></path></g><g class="path" style="opacity: 1; transform-origin: -128.1px 10.66px; transform: matrix3d(1, 0, 0, 0, 0, 1, 0, 0, 0, 0, 1, 0, 0, 0, 0, 1); animation: 0.613497s linear -0.303681s infinite normal forwards running animate-wb0ok0kkdwa; transform-box: view-box;"><path d="M119.96 6.13L119.96 46.01L106.72 46.01L106.72 6.13L98.52 6.13L98.52 0.89L106.72 0.89L106.72-15.71L119.96-15.71L119.96 0.89L133.63 0.89L133.63 6.13L119.96 6.13" style="fill: rgb(74, 101, 113);" transform="translate(-244.180,-23.005)"></path></g><g class="path" style="opacity: 1; transform-origin: -98.59px -17.56px; transform: matrix3d(1, 0, 0, 0, 0, 1, 0, 0, 0, 0, 1, 0, 0, 0, 0, 1); animation: 0.613497s linear -0.269939s infinite normal forwards running animate-wb0ok0kkdwa; transform-box: view-box;"><path d="M138.44-10.24L152.73-10.24L150.35 9.37L140.82 9.37L138.44-10.24" style="fill: rgb(74, 101, 113);" transform="translate(-244.180,-23.005)"></path></g><g class="path" style="opacity: 1; transform-origin: -63.77px 14.48px; transform: matrix3d(1, 0, 0, 0, 0, 1, 0, 0, 0, 0, 1, 0, 0, 0, 0, 1); animation: 0.613497s linear -0.236196s infinite normal forwards running animate-wb0ok0kkdwa; transform-box: view-box;"><path d="M201.25 31.60L201.25 31.60Q201.25 34.56 200.39 36.87Q199.53 39.17 198.05 40.87Q196.56 42.57 194.53 43.72Q192.50 44.88 190.18 45.58Q187.85 46.28 185.31 46.60Q182.77 46.91 180.27 46.91L180.27 46.91Q176.91 46.91 174.34 46.48Q171.76 46.05 169.41 45.09Q167.07 44.13 164.75 42.61Q162.42 41.09 159.57 38.90L159.57 38.90L167.27 32.61Q168.32 34.60 170.06 36.22Q171.80 37.85 173.67 39.02Q175.55 40.19 177.30 40.81Q179.06 41.44 180.16 41.44L180.16 41.44Q181.05 41.44 182.19 41.38Q183.32 41.32 184.49 41.15Q185.66 40.97 186.80 40.62Q187.93 40.27 188.81 39.66Q189.69 39.06 190.21 38.14Q190.74 37.22 190.74 35.93L190.74 35.93Q190.74 34.60 190.06 33.61Q189.38 32.61 188.28 31.87Q187.19 31.13 185.78 30.62Q184.38 30.11 182.95 29.72Q181.52 29.33 180.20 29.04Q178.87 28.74 177.89 28.47L177.89 28.47Q176.09 27.96 174.10 27.44Q172.11 26.91 170.16 26.22Q168.20 25.54 166.43 24.60Q164.65 23.67 163.30 22.36Q161.95 21.05 161.15 19.27Q160.35 17.49 160.35 15.11L160.35 15.11Q160.35 10.74 162.09 7.79Q163.83 4.84 166.68 3.06Q169.53 1.28 173.16 0.54Q176.80-0.20 180.55-0.20L180.55-0.20Q183.13-0.20 185.98 0.33Q188.83 0.85 191.52 1.89Q194.22 2.92 196.56 4.41Q198.91 5.89 200.47 7.81L200.47 7.81L192.77 14.13Q191.91 11.79 190.53 10.11Q189.14 8.43 187.52 7.36Q185.90 6.28 184.20 5.78Q182.50 5.27 181.05 5.27L181.05 5.27Q179.65 5.27 177.89 5.38Q176.13 5.50 174.59 6.05Q173.05 6.60 171.97 7.71Q170.90 8.82 170.90 10.78L170.90 10.78Q170.90 12.18 171.54 13.18Q172.19 14.17 173.24 14.90Q174.30 15.62 175.64 16.11Q176.99 16.60 178.40 16.97Q179.80 17.34 181.13 17.61Q182.46 17.88 183.52 18.20L183.52 18.20Q185.31 18.71 187.32 19.23Q189.34 19.76 191.29 20.44Q193.24 21.13 195.06 22.05Q196.88 22.96 198.24 24.29Q199.61 25.62 200.43 27.40Q201.25 29.17 201.25 31.60" style="fill: rgb(74, 101, 113);" transform="translate(-244.180,-23.005)"></path></g><g class="path" style="opacity: 1; transform-origin: 12.85px 12.39px; transform: matrix3d(1, 0, 0, 0, 0, 1, 0, 0, 0, 0, 1, 0, 0, 0, 0, 1); animation: 0.613497s linear -0.202454s infinite normal forwards running animate-wb0ok0kkdwa; transform-box: view-box;"><path d="M284.18 3.71L284.18 3.71L277.50 6.52Q276.72 3.98 275.41 1.87Q274.10-0.24 272.29-1.74Q270.47-3.25 268.16-4.09Q265.86-4.93 263.13-4.93L263.13-4.93Q260.20-4.93 257.75-3.97Q255.31-3.01 253.38-1.33Q251.45 0.35 250 2.57Q248.55 4.80 247.58 7.32Q246.60 9.84 246.13 12.53Q245.66 15.23 245.66 17.81L245.66 17.81Q245.66 21.91 246.62 25.97Q247.58 30.03 249.67 33.28Q251.76 36.52 255.08 38.53Q258.40 40.54 263.13 40.54L263.13 40.54Q265.63 40.54 267.85 39.70Q270.08 38.86 271.89 37.40Q273.71 35.93 275.08 33.94Q276.45 31.95 277.27 29.64L277.27 29.64L284.02 32.34Q282.54 36.05 279.96 38.84Q277.38 41.63 274.08 43.47Q270.78 45.31 267.01 46.22Q263.24 47.14 259.41 47.14L259.41 47.14Q255.27 47.14 251.46 46.13Q247.66 45.11 244.38 43.24Q241.09 41.36 238.42 38.71Q235.74 36.05 233.85 32.81Q231.95 29.56 230.92 25.76Q229.88 21.95 229.88 17.81L229.88 17.81Q229.88 13.67 230.92 9.86Q231.95 6.05 233.85 2.79Q235.74-0.47 238.42-3.13Q241.09-5.79 244.38-7.66Q247.66-9.54 251.46-10.55Q255.27-11.57 259.41-11.57L259.41-11.57Q263.40-11.57 267.21-10.63Q271.02-9.69 274.30-7.80Q277.58-5.90 280.14-3.03Q282.70-0.16 284.18 3.71" style="fill: rgb(74, 101, 113);" transform="translate(-244.180,-23.005)"></path></g><g class="path" style="opacity: 1; transform-origin: 71.27px 18.35px; transform: matrix3d(1, 0, 0, 0, 0, 1, 0, 0, 0, 0, 1, 0, 0, 0, 0, 1); animation: 0.613497s linear -0.168712s infinite normal forwards running animate-wb0ok0kkdwa; transform-box: view-box;"><path d="M338.52 20.15L338.52 20.15Q338.52 24.72 337.40 29.68Q336.29 34.64 334.30 39.41Q332.30 44.17 329.53 48.37Q326.76 52.57 323.44 55.62L323.44 55.62L318.48 52.92Q319.53 50.97 320.47 48.55Q321.41 46.13 322.17 43.41Q322.93 40.70 323.54 37.81Q324.14 34.92 324.55 32.08Q324.96 29.25 325.18 26.58Q325.39 23.90 325.39 21.60L325.39 21.60Q325.39 20.07 325.27 18.33Q325.16 16.60 324.79 14.86Q324.41 13.12 323.79 11.52Q323.16 9.92 322.13 8.71Q321.09 7.49 319.63 6.75Q318.16 6.01 316.17 6.01L316.17 6.01Q314.22 6.01 312.70 6.89Q311.17 7.77 310 9.19Q308.83 10.62 307.99 12.46Q307.15 14.29 306.62 16.22Q306.09 18.16 305.86 20.03Q305.63 21.91 305.63 23.39L305.63 23.39L305.63 46.01L292.38 46.01L292.38-15.71L305.59-15.71L305.59 7.53Q308.13 3.82 311.82 1.81Q315.51-0.20 320-0.20L320-0.20Q324.69-0.20 328.16 1.32Q331.64 2.85 333.95 5.56Q336.25 8.28 337.38 12.01Q338.52 15.74 338.52 20.15" style="fill: rgb(74, 101, 113);" transform="translate(-244.180,-23.005)"></path></g><g class="path" style="opacity: 1; transform-origin: 124.5px 14.48px; transform: matrix3d(1, 0, 0, 0, 0, 1, 0, 0, 0, 0, 1, 0, 0, 0, 0, 1); animation: 0.613497s linear -0.134969s infinite normal forwards running animate-wb0ok0kkdwa; transform-box: view-box;"><path d="M392.66 0.89L392.66 46.01L379.45 46.01L379.45 40.62Q377.11 43.82 373.81 45.37Q370.51 46.91 366.56 46.91L366.56 46.91Q361.41 46.91 357.34 45.07Q353.28 43.24 350.47 40.05Q347.66 36.87 346.17 32.57Q344.69 28.28 344.69 23.35L344.69 23.35Q344.69 18.43 346.17 14.13Q347.66 9.84 350.47 6.65Q353.28 3.47 357.34 1.63Q361.41-0.20 366.56-0.20L366.56-0.20Q369.18-0.20 371.54 0.58Q373.91 1.36 375.88 2.79Q377.85 4.21 379.36 6.22Q380.86 8.24 381.72 10.70L381.72 10.70L387.58 0.89L392.66 0.89 zM379.38 23.35L379.38 23.35Q379.38 21.60 379.20 19.64Q379.02 17.69 378.59 15.78Q378.16 13.86 377.40 12.12Q376.64 10.38 375.45 9.04Q374.26 7.69 372.58 6.91Q370.90 6.13 368.67 6.13L368.67 6.13Q366.45 6.13 364.80 6.93Q363.16 7.73 361.99 9.08Q360.82 10.42 360.06 12.18Q359.30 13.94 358.87 15.85Q358.44 17.77 358.26 19.70Q358.09 21.63 358.09 23.35L358.09 23.35Q358.09 25.07 358.26 27.03Q358.44 28.98 358.87 30.89Q359.30 32.81 360.06 34.56Q360.82 36.32 361.99 37.67Q363.16 39.02 364.80 39.82Q366.45 40.62 368.67 40.62L368.67 40.62Q370.70 40.62 372.29 39.78Q373.87 38.94 375.06 37.53Q376.25 36.13 377.07 34.33Q377.89 32.53 378.40 30.62Q378.91 28.71 379.14 26.81Q379.38 24.92 379.38 23.35" style="fill: rgb(74, 101, 113);" transform="translate(-244.180,-23.005)"></path></g><g class="path" style="opacity: 1; transform-origin: 172.6px 10.66px; transform: matrix3d(1, 0, 0, 0, 0, 1, 0, 0, 0, 0, 1, 0, 0, 0, 0, 1); animation: 0.613497s linear -0.101227s infinite normal forwards running animate-wb0ok0kkdwa; transform-box: view-box;"><path d="M420.66 6.13L420.66 46.01L407.42 46.01L407.42 6.13L399.22 6.13L399.22 0.89L407.42 0.89L407.42-15.71L420.66-15.71L420.66 0.89L434.34 0.89L434.34 6.13L420.66 6.13" style="fill: rgb(74, 101, 113);" transform="translate(-244.180,-23.005)"></path></g><g class="path" style="opacity: 1; transform-origin: 198.59px 21.44px; transform: matrix3d(1, 0, 0, 0, 0, 1, 0, 0, 0, 0, 1, 0, 0, 0, 0, 1); animation: 0.613497s linear -0.0674847s infinite normal forwards running animate-wb0ok0kkdwa; transform-box: view-box;"><path d="M449.88 40.15L449.88 40.15Q449.88 41.63 449.34 42.94Q448.79 44.25 447.81 45.21Q446.84 46.17 445.55 46.73Q444.26 47.30 442.77 47.30L442.77 47.30Q441.29 47.30 440 46.73Q438.71 46.17 437.73 45.21Q436.76 44.25 436.21 42.94Q435.66 41.63 435.66 40.15L435.66 40.15Q435.66 38.71 436.21 37.40Q436.76 36.09 437.73 35.13Q438.71 34.17 440 33.61Q441.29 33.04 442.77 33.04L442.77 33.04Q444.26 33.04 445.55 33.61Q446.84 34.17 447.81 35.13Q448.79 36.09 449.34 37.40Q449.88 38.71 449.88 40.15" style="fill: rgb(74, 101, 113);" transform="translate(-244.180,-23.005)"></path></g><g class="path" style="opacity: 1; transform-origin: 221.02px 21.44px; transform: matrix3d(1, 0, 0, 0, 0, 1, 0, 0, 0, 0, 1, 0, 0, 0, 0, 1); animation: 0.613497s linear -0.0337423s infinite normal forwards running animate-wb0ok0kkdwa; transform-box: view-box;"><path d="M472.30 40.15L472.30 40.15Q472.30 41.63 471.76 42.94Q471.21 44.25 470.23 45.21Q469.26 46.17 467.97 46.73Q466.68 47.30 465.20 47.30L465.20 47.30Q463.71 47.30 462.42 46.73Q461.13 46.17 460.16 45.21Q459.18 44.25 458.63 42.94Q458.09 41.63 458.09 40.15L458.09 40.15Q458.09 38.71 458.63 37.40Q459.18 36.09 460.16 35.13Q461.13 34.17 462.42 33.61Q463.71 33.04 465.20 33.04L465.20 33.04Q466.68 33.04 467.97 33.61Q469.26 34.17 470.23 35.13Q471.21 36.09 471.76 37.40Q472.30 38.71 472.30 40.15" style="fill: rgb(74, 101, 113);" transform="translate(-244.180,-23.005)"></path></g><g class="path" style="opacity: 1; transform-origin: 243.44px 21.44px; transform: matrix3d(1, 0, 0, 0, 0, 1, 0, 0, 0, 0, 1, 0, 0, 0, 0, 1); animation: 0.613497s linear 0s infinite normal forwards running animate-wb0ok0kkdwa; transform-box: view-box;"><path d="M494.73 40.15L494.73 40.15Q494.73 41.63 494.18 42.94Q493.63 44.25 492.66 45.21Q491.68 46.17 490.39 46.73Q489.10 47.30 487.62 47.30L487.62 47.30Q486.13 47.30 484.84 46.73Q483.55 46.17 482.58 45.21Q481.60 44.25 481.05 42.94Q480.51 41.63 480.51 40.15L480.51 40.15Q480.51 38.71 481.05 37.40Q481.60 36.09 482.58 35.13Q483.55 34.17 484.84 33.61Q486.13 33.04 487.62 33.04L487.62 33.04Q489.10 33.04 490.39 33.61Q491.68 34.17 492.66 35.13Q493.63 36.09 494.18 37.40Q494.73 38.71 494.73 40.15" style="fill: rgb(74, 101, 113);" transform="translate(-244.180,-23.005)"></path></g></g><text dy="0.35em" fill="#4a6571" font-family="Aclonica" font-size="40">Let's Chat...</text>
</g>
</g><style type="text/css">@keyframes animate-wb0ok0kkdwa { 0.00% {transform: translate(0.00px,0.00px) rotate(0.00deg) scale(1.00, 1.00) skew(0deg, 0.00deg) ;opacity: 1.00;}2.00% {animation-timing-function: cubic-bezier(0.20,0.39,0.50,0.97);transform: translate(0.00px,-1.08px) rotate(0.00deg) ;}36.00% {animation-timing-function: cubic-bezier(0.50,0.03,0.80,0.61);transform: translate(0.00px,-10.00px) rotate(0.00deg) ;}72.00% {transform: translate(0.00px,-0.12px) rotate(0.00deg) ;}74.00% {animation-timing-function: cubic-bezier(0.24,0.43,0.48,0.91);transform: translate(0.00px,0.00px) rotate(0.00deg) scale(1.00, 0.95) ;}86.00% {animation-timing-function: cubic-bezier(0.53,0.08,0.77,0.57);transform: translate(0.00px,0.00px) rotate(0.00deg) scale(1.00, 0.80) ;}100.00% {animation-timing-function: cubic-bezier(0.53,0.08,0.77,0.57);transform: translate(0.00px,0.00px) rotate(0.00deg) scale(1.00, 1.00) ;} }</style><!-- [ldio] generated by https://loading.io --></svg>